<svg xmlns="http://www.w3.org/2000/svg" width="50" height="45" viewBox="0 0 50 45"><symbol id="Campaign"><g><g><path d="M50 4.412v36.176C50 43.021 48.032 45 45.614 45s-4.386-1.98-4.386-4.412v-2.001l-13.039-4.158c.164.64.151 1.312-.055 1.954a3.495 3.495 0 0 1-1.744 2.052 3.481 3.481 0 0 1-2.674.217l-12.518-4.079a3.482 3.482 0 0 1-2.04-1.753 3.526 3.526 0 0 1-.216-2.692c.197-.61.554-1.118.998-1.52l-2.954-.942c-.16 1.798-1.65 3.216-3.477 3.216-1.935 0-3.51-1.583-3.51-3.53v-9.705c0-1.946 1.575-3.53 3.51-3.53 1.828 0 3.316 1.419 3.477 3.217L41.228 6.413V4.412C41.228 1.979 43.196 0 45.614 0S50 1.98 50 4.412zM25.339 33.616l-12.519-4.08a1.759 1.759 0 0 0-2.1 2.48c.214.422.576.733 1.02.878l12.518 4.08c.442.142.917.104 1.336-.111.418-.215.729-.579.873-1.025a1.768 1.768 0 0 0-1.128-2.222zM5.263 17.647c0-.973-.787-1.765-1.754-1.765-.968 0-1.755.792-1.755 1.765v9.706c0 .973.787 1.765 1.755 1.765.967 0 1.754-.792 1.754-1.765zm35.965 19.09V8.265L7.018 19.176v6.649zm7.017-32.325c0-1.46-1.18-2.647-2.631-2.647a2.643 2.643 0 0 0-2.632 2.647v36.176c0 1.46 1.181 2.647 2.632 2.647a2.643 2.643 0 0 0 2.631-2.647z"/></g></g></symbol></svg>