<svg xmlns="http://www.w3.org/2000/svg" width="47" height="52" viewBox="0 0 47 52"><symbol id="color"><g><g><path d="M47 2.11v12.054c0 1.171-.952 2.12-2.127 2.12H6.656a2.124 2.124 0 0 1-2.127-2.12V9.152H2.035v14.915h23.358c.562 0 1.018.454 1.018 1.015v2.8h2.178c1.17 0 2.121.943 2.127 2.11V49.88c0 1.172-.953 2.12-2.127 2.12h-6.433a2.124 2.124 0 0 1-2.127-2.12V30.003c0-1.171.953-2.12 2.127-2.12h2.22v-1.787H1.016A1.016 1.016 0 0 1 0 25.082V8.137c0-.56.455-1.014 1.017-1.014H4.53V2.12C4.529.949 5.48 0 6.656 0h38.217c1.17 0 2.121.943 2.127 2.11zM22.156 29.901c-.05 0-.091.041-.091.092v19.886c0 .05.04.092.091.092h6.433c.05 0 .091-.041.091-.092V30.003c0-.05-.04-.092-.091-.092zM33.678 4.546c0-.56.455-1.015 1.017-1.015h10.229l.04-1.42a.091.091 0 0 0-.091-.092H6.656c-.05 0-.092.04-.092.091v12.075c0 .05.041.09.092.09h38.217c.05 0 .092-.04.092-.09V11.79h-7.939a1.016 1.016 0 0 1-1.018-1.015c0-.56.456-1.014 1.018-1.014h7.939V8.645h-6.046a1.016 1.016 0 0 1-1.018-1.015c0-.56.456-1.015 1.018-1.015h6.046V5.56h-10.27a1.016 1.016 0 0 1-1.017-1.014z"/></g></g></symbol></svg>