<svg xmlns="http://www.w3.org/2000/svg" width="55" height="39" viewBox="0 0 55 39"><symbol id="connect"><g><g><path d="M28.818 39c-.001 0 0 0 0 0-6.255 0-13.064-.196-20.237-.579-4.238-.23-7.526-3.469-7.994-7.876a104.242 104.242 0 0 1 0-22.094C1.054 4.08 4.337.84 8.571.578c12.372-.772 25.102-.772 37.855 0 4.283.257 7.492 3.419 7.988 7.869.78 7.045.781 14.477 0 22.095-.45 4.404-3.656 7.57-7.977 7.877-5.437.385-11.365.58-17.62.58zM27.355 2.092c-6.235 0-12.51.194-18.653.576-3.236.201-5.652 2.615-6.015 6.004a102.196 102.196 0 0 0 0 21.654c.363 3.416 2.776 5.828 6.007 6.004 7.135.381 13.906.576 20.122.576 6.205 0 12.082-.194 17.47-.575 3.259-.232 5.681-2.643 6.025-6.001.767-7.471.767-14.756 0-21.654-.376-3.4-2.794-5.814-6.014-6.008a315.131 315.131 0 0 0-18.942-.576zm8.687 17.224l-13.923 7.136v-14.37z"/></g></g></symbol></svg>