<svg xmlns="http://www.w3.org/2000/svg" width="49" height="45" viewBox="0 0 49 45"><symbol id="download"><g><g><path d="M39.9 45H9.1c-5.012 0-9.1-4.04-9.1-9.017v-12.86c0-.773.625-1.39 1.405-1.39s1.404.617 1.404 1.39v12.86c0 3.432 2.818 6.235 6.291 6.235h30.802c3.463 0 6.291-2.793 6.291-6.235V23.33c0-.772.624-1.39 1.404-1.39.78 0 1.404.628 1.404 1.39v12.654C49 40.95 44.924 45 39.9 45zM25.489 33.953c-.27.279-.635.413-.988.413a1.42 1.42 0 0 1-.988-.413l-8.933-8.84a1.378 1.378 0 0 1 0-1.969 1.409 1.409 0 0 1 1.987 0l6.53 6.471V1.391C23.096.618 23.72 0 24.5 0c.78 0 1.404.618 1.404 1.391v28.224l6.52-6.471a1.409 1.409 0 0 1 1.986 0 1.378 1.378 0 0 1 0 1.968z"/></g></g></symbol></svg>