<svg xmlns="http://www.w3.org/2000/svg" width="49" height="49" viewBox="0 0 49 49"><symbol id="icon-logo"><g><g><path d="M49 4.562v27.495a1.115 1.115 0 0 1-1.527 1.038c-.116-.046-11.702-4.585-20.224-.05-3.23 1.717-7.287 2.287-11.248 2.287-5.726 0-11.242-1.19-13.774-1.822v14.377a1.114 1.114 0 1 1-2.227 0V4.562c0-.013.009-.024.009-.038C.008 4.51 0 4.495 0 4.48V1.13a1.114 1.114 0 1 1 2.227 0v2.577c3.358.864 16.494 3.852 23.978-.13 9.445-5.022 21.583-.257 22.095-.05.423.169.7.579.7 1.035zm-2.227.785C44.13 4.45 34.562 1.66 27.249 5.55c-7.893 4.198-20.73 1.539-25.022.466v25.187c3.363.864 16.495 3.85 23.978-.132 7.598-4.043 16.937-1.745 20.568-.586z"/></g></g></symbol></svg>