<svg xmlns="http://www.w3.org/2000/svg" width="49" height="49" viewBox="0 0 49 49"><defs><filter id="j0vva" width="200%" height="200%" x="-50%" y="-50%"><feGaussianBlur in="SourceGraphic" result="FeGaussianBlur1055Out" stdDeviation="2 2"/></filter><mask id="j0vvb"><path fill="#fff" d="M24.5 0C38.03 0 49 10.969 49 24.5 49 38.03 38.03 49 24.5 49 10.969 49 0 38.03 0 24.5 0 10.969 10.969 0 24.5 0z"/></mask></defs><g><g><path fill="#c3e8ee" d="M24.5 0C38.03 0 49 10.969 49 24.5 49 38.03 38.03 49 24.5 49 10.969 49 0 38.03 0 24.5 0 10.969 10.969 0 24.5 0z"/><path fill="#46b9ca" fill-opacity=".75" d="M-4 53V-4h57v57zm4-28.5C0 38.03 10.969 49 24.5 49 38.03 49 49 38.03 49 24.5 49 10.969 38.03 0 24.5 0 10.969 0 0 10.969 0 24.5z" filter="url(#j0vva)" mask="url(&quot;#j0vvb&quot;)"/></g><g><path fill="#46b9ca" d="M37 24.072c0-1.736-.486-3.376-1.406-4.741a.58.58 0 0 0-.82-.154.612.612 0 0 0-.15.839c.783 1.163 1.197 2.565 1.197 4.056 0 1.486-.433 2.938-1.219 4.09a.612.612 0 0 0 .146.84.577.577 0 0 0 .82-.15c.937-1.371 1.432-3.024 1.432-4.78zm-2.439.007c0-1.114-.312-2.166-.903-3.044a.58.58 0 0 0-.82-.154.612.612 0 0 0-.15.839 4.2 4.2 0 0 1 .695 2.36c0 .864-.252 1.71-.708 2.378a.612.612 0 0 0 .145.84.577.577 0 0 0 .82-.15c.603-.881.921-1.943.921-3.069zm-2.817 8.389c.056-.117.084-.27.084-.456V15.735c0-.7-.412-.735-.494-.735-.195 0-.385.126-.566.373-.02.027-2.029 2.691-7.049 4.275-.367.116-.8.265-1.288.326-.27.033-.334-.025-.355-.065a.88.88 0 0 0-.774-.47h-4.958a.895.895 0 0 0-.884.905v.337c0 .203-.14.212-.19.216l-.115.01c-.637.047-1.155.617-1.155 1.27v3.392c0 .654.518 1.224 1.155 1.271l.165.013c.04.003.14.04.14.22v.33c0 .498.397.904.884.904h.384c.17 0 .202.176.202.176l1.372 6.396c.135.629.733 1.121 1.361 1.121h1.584c.321 0 .612-.136.798-.372.186-.237.253-.557.184-.878l-1.34-6.25s-.051-.193.14-.193h.273c.331 0 .596-.204.771-.465.076-.113.232-.096.317-.078.498.103.952.215 1.33.334 5.02 1.588 7.028 4.25 7.047 4.276.182.247.372.373.566.373.176 0 .326-.102.41-.28z"/></g></g></svg>