<svg xmlns="http://www.w3.org/2000/svg" width="147" height="147" viewBox="0 0 147 147"><defs><filter id="8dvja" width="200%" height="200%" x="-50%" y="-50%"><feGaussianBlur in="SourceGraphic" result="FeGaussianBlur1112Out" stdDeviation="2 2"/></filter><mask id="8dvjb"><path fill="#fff" d="M73.5 0C114.093 0 147 32.907 147 73.5S114.093 147 73.5 147 0 114.093 0 73.5 32.907 0 73.5 0z"/></mask></defs><g><g><path fill="#c3e8ee" d="M73.5 0C114.093 0 147 32.907 147 73.5S114.093 147 73.5 147 0 114.093 0 73.5 32.907 0 73.5 0z"/><path fill="#46b9ca" fill-opacity=".75" d="M-4 151V-4h155v155zm4-77.5C0 114.093 32.907 147 73.5 147S147 114.093 147 73.5 114.093 0 73.5 0 0 32.907 0 73.5z" filter="url(#8dvja)" mask="url(&quot;#8dvjb&quot;)"/></g><g><path fill="#46b9ca" d="M104 60.897c0-4.383-1.226-8.52-3.545-11.966a1.464 1.464 0 0 0-2.067-.39 1.546 1.546 0 0 0-.38 2.117c1.976 2.936 3.02 6.476 3.02 10.239 0 3.748-1.092 7.414-3.075 10.321-.47.69-.306 1.638.367 2.12.26.185.556.274.85.274.469 0 .93-.226 1.22-.65 2.361-3.463 3.61-7.635 3.61-12.065zm-6.15.017c0-2.811-.788-5.468-2.278-7.683a1.464 1.464 0 0 0-2.067-.389 1.546 1.546 0 0 0-.38 2.117c1.147 1.705 1.753 3.764 1.753 5.955 0 2.184-.634 4.316-1.785 6.004-.47.689-.306 1.638.367 2.12.26.185.556.274.85.274.469 0 .93-.227 1.219-.65 1.519-2.227 2.321-4.906 2.321-7.748zm-7.105 21.172c.141-.296.213-.683.213-1.152v-41.08c0-1.765-1.04-1.854-1.247-1.854-.49 0-.97.317-1.427.941-.05.068-5.115 6.792-17.774 10.79-.926.293-2.017.668-3.249.822-.681.085-.842-.062-.896-.163a2.22 2.22 0 0 0-1.951-1.185H51.91c-1.23 0-2.23 1.024-2.23 2.283v.85c0 .513-.353.536-.476.545l-.293.023c-1.606.12-2.912 1.56-2.912 3.208v8.56c0 1.65 1.306 3.089 2.912 3.208l.417.033c.1.008.353.1.353.557v.83c0 1.258 1 2.283 2.229 2.283h.968c.427 0 .51.443.51.443l3.46 16.144c.34 1.586 1.847 2.828 3.432 2.828h3.993c.81 0 1.545-.342 2.013-.94.469-.596.638-1.403.464-2.214l-3.38-15.774s-.128-.488.355-.488h.688c.836 0 1.502-.514 1.945-1.173.19-.284.584-.242.798-.198 1.257.262 2.4.543 3.353.845 12.66 4.006 17.724 10.723 17.773 10.79.458.624.938.941 1.427.941.444 0 .821-.256 1.035-.703z"/></g></g></svg>