<svg xmlns="http://www.w3.org/2000/svg" width="49" height="49" viewBox="0 0 49 49"><defs><filter id="mqnja" width="200%" height="200%" x="-50%" y="-50%"><feGaussianBlur in="SourceGraphic" result="FeGaussianBlur1093Out" stdDeviation="2 2"/></filter><mask id="mqnjb"><path fill="#fff" d="M24.5 0C38.03 0 49 10.969 49 24.5 49 38.03 38.03 49 24.5 49 10.969 49 0 38.03 0 24.5 0 10.969 10.969 0 24.5 0z"/></mask></defs><g><g><path fill="#efda77" d="M24.5 0C38.03 0 49 10.969 49 24.5 49 38.03 38.03 49 24.5 49 10.969 49 0 38.03 0 24.5 0 10.969 10.969 0 24.5 0z"/><path fill="#f5b356" fill-opacity=".75" d="M-4 53V-4h57v57zm4-28.5C0 38.03 10.969 49 24.5 49 38.03 49 49 38.03 49 24.5 49 10.969 38.03 0 24.5 0 10.969 0 0 10.969 0 24.5z" filter="url(#mqnja)" mask="url(&quot;#mqnjb&quot;)"/></g><g><path fill="#e2ab26" d="M35.543 25.36c0 6.153-4.954 11.159-11.043 11.159-6.09 0-11.044-5.006-11.044-11.159 0-6.034 4.769-10.964 10.698-11.15v3.714l5.523-4.962-5.523-4.96v3.731C16.87 11.919 11 17.958 11 25.36 11.001 32.882 17.056 39 24.5 39c7.443 0 13.498-6.117 13.498-13.639z"/></g></g></svg>