<svg xmlns="http://www.w3.org/2000/svg" width="41" height="55" viewBox="0 0 41 55"><symbol id="launch"><g><g><path d="M25.926 55c-5.675 0-11.35-2.661-15.43-9.936C4.823 34.597-2.626 27.677.92 24.13c2.483-2.484 6.384 0 9.931 3.193v-15.79c0-2.484 1.951-4.435 4.434-4.435s4.434 1.951 4.434 4.435v8.871a4.355 4.355 0 0 1 2.66-.887c1.773 0 3.37 1.065 4.079 2.839a4.815 4.815 0 0 1 3.014-1.065c2.483 0 4.434 1.952 4.434 4.436a4.355 4.355 0 0 1 2.66-.887c2.483 0 4.434 1.951 4.434 4.435V39.92C41 48.258 34.26 55 25.926 55zm13.3-25.726c0-1.42-1.241-2.661-2.66-2.661-1.418 0-2.66 1.242-2.66 2.661v.887h-1.773v-4.435c0-1.42-1.242-2.662-2.66-2.662-1.42 0-2.66 1.242-2.66 2.662v2.661h-1.774v-4.435c0-1.42-1.242-2.662-2.66-2.662-1.42 0-2.66 1.242-2.66 2.662v6.21h-1.774v-18.63c0-1.42-1.241-2.661-2.66-2.661s-2.66 1.242-2.66 2.661v20.049C8.9 27.677 4.112 23.419 2.16 25.37c-1.95 1.951 3.015 7.274 9.932 18.984 3.192 5.145 7.094 8.87 13.833 8.87 7.27 0 13.3-6.386 13.3-13.306zM7.304 11.532a7.949 7.949 0 0 1 7.98-7.984 7.949 7.949 0 0 1 7.981 7.984c0 1.952-.709 3.726-1.773 4.968v-4.968c0-3.37-2.838-6.21-6.207-6.21-3.37 0-6.207 2.84-6.207 6.21V16.5c-1.064-1.242-1.774-3.016-1.774-4.968zm15.43 6.387c1.418-1.597 2.305-3.903 2.305-6.21 0-5.322-4.434-9.757-9.754-9.757-5.32 0-9.754 4.435-9.754 9.758 0 3.016 1.419 5.677 3.547 7.451v2.13c-3.192-2.13-5.32-5.678-5.32-9.759A11.507 11.507 0 0 1 15.284 0a11.507 11.507 0 0 1 11.527 11.532c0 2.484-.709 4.79-2.128 6.742-.71-.177-1.241-.355-1.95-.355z"/></g></g></symbol></svg>