<svg xmlns="http://www.w3.org/2000/svg" width="20" height="21" viewBox="0 0 20 21"><symbol id="management"><g><g><path d="M6.357 10.49c0-1.97 1.635-3.573 3.645-3.573s3.645 1.603 3.645 3.573-1.635 3.573-3.645 3.573-3.645-1.603-3.645-3.573zm1.916 0c0 .935.776 1.695 1.73 1.695.952 0 1.728-.76 1.728-1.695 0-.934-.776-1.695-1.729-1.695-.953 0-1.73.76-1.73 1.695zM.599 12.368l1.24-.88a7.98 7.98 0 0 1-.001-1.978L.597 8.63c-.837-.534-.79-1.82.129-3.38.921-1.565 2.036-2.247 2.926-1.797l1.388.608a8.181 8.181 0 0 1 1.755-.996l.157-1.484c.052-.977 1.212-1.58 3.05-1.58 1.843 0 3.003.605 3.05 1.585l.157 1.479c.625.26 1.212.592 1.755.996l1.392-.61c.89-.444 2.003.238 2.922 1.799.332.563.569 1.15.668 1.652.206 1.05-.225 1.526-.542 1.729l-1.238.88a8.007 8.007 0 0 1-.002 1.977l1.24.88c.317.202.748.679.542 1.729-.1.503-.336 1.09-.668 1.652-.92 1.561-2.034 2.244-2.923 1.798l-1.405-.615a8.196 8.196 0 0 1-1.74.985l-.158 1.496c-.047.98-1.207 1.586-3.05 1.586-1.839 0-3-.605-3.05-1.582l-.16-1.5a8.184 8.184 0 0 1-1.738-.985l-1.402.614c-.89.45-2.005-.232-2.926-1.797-.92-1.561-.966-2.849-.127-3.38zm2.842.301l-1.503 1.068c.043.22.171.605.447 1.073.275.468.552.769.724.916l1.702-.745a.973.973 0 0 1 1.024.153c.634.547 1.36.958 2.155 1.22a.943.943 0 0 1 .648.793l.192 1.817c.216.072.62.157 1.172.157.55 0 .955-.085 1.171-.157l.193-1.817a.943.943 0 0 1 .647-.793 6.298 6.298 0 0 0 2.156-1.22.973.973 0 0 1 1.024-.153l1.7.745c.173-.147.45-.449.726-.916.275-.468.403-.853.447-1.073l-1.504-1.068a.93.93 0 0 1-.377-.946 6.113 6.113 0 0 0 .003-2.452.93.93 0 0 1 .377-.944l1.5-1.065c-.043-.22-.17-.606-.446-1.073-.276-.468-.553-.77-.725-.917l-1.688.74a.973.973 0 0 1-1.026-.154 6.3 6.3 0 0 0-2.168-1.23.943.943 0 0 1-.648-.794l-.19-1.799c-.217-.073-.622-.157-1.172-.157-.551 0-.956.084-1.172.157l-.19 1.799a.943.943 0 0 1-.648.793 6.298 6.298 0 0 0-2.169 1.23.973.973 0 0 1-1.025.155l-1.689-.74c-.172.148-.449.45-.724.917-.276.467-.403.853-.447 1.073l1.5 1.065a.93.93 0 0 1 .378.945 6.12 6.12 0 0 0 .002 2.45.93.93 0 0 1-.377.947z"/></g></g></symbol></svg>