<svg xmlns="http://www.w3.org/2000/svg" width="38" height="45" viewBox="0 0 38 45"><symbol id="Notifications"><g><g><path d="M37.073 45H.927A.927.927 0 0 1 0 44.078V.922A.91.91 0 0 1 .269.267.935.935 0 0 1 .927 0L28.1.055h.13c.028 0 .046 0 .074.01.01 0 .019.009.028.009.019.009.046.009.065.018.01 0 .019.01.028.01.028.009.046.018.065.027.009.01.018.01.028.019l.055.027c.01.01.019.01.028.019a.16.16 0 0 0 .046.036c.01 0 .019.01.028.019.019.01.028.028.046.037l.028.027c.019.01.028.028.046.047l.019.018 8.981 10.614.01.009c0 .01.009.018.018.028.01.009.018.027.028.037 0 .009.009.027.018.036 0 .01.01.028.019.037.009.01.009.028.018.037.01.01.01.028.019.037.01.019.01.028.018.046 0 .01.01.028.01.037.009.019.018.028.018.046 0 .01.01.028.01.037 0 .019.009.028.009.046.009.019.009.037.009.055V44.078a.927.927 0 0 1-.927.922zM29.02 3.513v7.11l6.052.046zm7.127 9l-8.063-.055a.92.92 0 0 1-.918-.922V1.909L1.854 1.844v41.302h34.292zM8.555 16.866h20.89c.51 0 .927.415.927.922a.927.927 0 0 1-.927.922H8.555a.927.927 0 0 1-.927-.922c0-.507.417-.922.927-.922zm0 5.625h20.89c.51 0 .927.415.927.922a.927.927 0 0 1-.927.922H8.555a.927.927 0 0 1-.927-.922c0-.507.417-.922.927-.922zm0 5.625h20.89c.51 0 .927.415.927.922a.927.927 0 0 1-.927.922H8.555a.927.927 0 0 1-.927-.922c0-.507.417-.922.927-.922zm0 5.625h20.89c.51 0 .927.415.927.922a.927.927 0 0 1-.927.922H8.555a.927.927 0 0 1-.927-.922c0-.507.417-.922.927-.922z"/></g></g></symbol></svg>